Coordinates
version=1
nRows=16
nColumns=30
inDegrees=yes

Units are S.I. units (second, meters, Newtons, ...)
Angles are in degrees.

endheader
time	floatyaw	floatroll	floatpitch	floatx	floaty	floatz	pro_sup_l	deviation_l	flexion_l	cmc_flexion_l	cmc_abduction_l	mp_flexion_l	ip_flexion_l	2mcp_flexion_l	2mcp_abduction_l	2pm_flexion_l	2md_flexion_l	3mcp_flexion_l	3mcp_abduction_l	3pm_flexion_l	3md_flexion_l	4mcp_flexion_l	4mcp_abduction_l	4pm_flexion_l	4md_flexion_l	5mcp_flexion_l	5mcp_abduction_l	5pm_flexion_l	5md_flexion_l
-1.495000	3.029614	-4.103828	101.268469	-0.102246	-0.208767	-0.046039	83.671760	1.792878	-0.085851	15.250659	1.726557	-23.165980	-36.185152	39.335624	7.597995	50.554932	33.596176	25.953105	4.739690	48.687865	30.109558	16.174977	-4.479384	62.010094	39.837951	9.487683	-8.898526	60.717224	40.197071
-1.485000	3.029614	-4.103828	101.268469	-0.102248	-0.208778	-0.046049	83.678740	1.805833	-0.091069	15.230851	1.746884	-23.161117	-36.171168	39.342992	7.593766	50.581027	33.616210	25.944146	4.735280	48.728688	30.141969	16.165487	-4.479348	62.015084	39.847467	9.481466	-8.901589	60.697755	40.191138
-1.475000	3.029614	-4.103828	101.268469	-0.102249	-0.208786	-0.046050	83.694985	1.822239	-0.100166	15.212202	1.772061	-23.159170	-36.161544	39.367847	7.580152	50.598590	33.626634	25.943731	4.723682	48.759176	30.163858	16.165908	-4.481491	62.015735	39.851375	9.440493	-8.874852	60.678586	40.189392
-1.465000	3.029614	-4.103828	101.268469	-0.102247	-0.208792	-0.046039	83.714989	1.835445	-0.112814	15.196356	1.798073	-23.159081	-36.155622	39.403230	7.558045	50.606156	33.627845	25.951054	4.709590	48.773830	30.173302	16.175620	-4.485534	62.015680	39.851862	9.379252	-8.828900	60.669010	40.194784
-1.455000	3.029614	-4.103828	101.268469	-0.102241	-0.208799	-0.046018	83.731263	1.839536	-0.128301	15.183940	1.819652	-23.159529	-36.151551	39.439024	7.532285	50.606232	33.623478	25.963256	4.698580	48.773648	30.172921	16.191532	-4.490345	62.016817	39.851032	9.318573	-8.781654	60.674135	40.207558
-1.445000	3.029614	-4.103828	101.268469	-0.102231	-0.208810	-0.045990	83.738883	1.832238	-0.144542	15.174103	1.830572	-23.159996	-36.147475	39.465939	7.509286	50.603423	33.618242	25.976263	4.694712	48.764275	30.167815	16.209231	-4.494059	62.018624	39.849912	9.279132	-8.750829	60.693290	40.224879
-1.435000	3.029614	-4.103828	101.268469	-0.102217	-0.208821	-0.045963	83.738633	1.816272	-0.157809	15.164655	1.825415	-23.161228	-36.142503	39.478910	7.494147	50.602361	33.615900	25.986120	4.699120	48.752941	30.163136	16.224961	-4.494993	62.019409	39.848474	9.274675	-8.746529	60.720980	40.241940
-1.425000	3.029614	-4.103828	101.268469	-0.102202	-0.208827	-0.045942	83.736652	1.798250	-0.163711	15.152997	1.802546	-23.164836	-36.137044	39.478463	7.489239	50.606036	33.618105	25.990109	4.710093	48.745587	30.162341	16.237038	-4.492742	62.018163	39.846386	9.307203	-8.767805	60.749502	40.253998
-1.415000	3.029614	-4.103828	101.268469	-0.102187	-0.208820	-0.045930	83.740683	1.785479	-0.158944	15.137441	1.766604	-23.172381	-36.132496	39.469646	7.494410	50.614702	33.624178	25.987189	4.724245	48.744856	30.166495	16.245480	-4.488525	62.015407	39.843809	9.366484	-8.804748	60.771949	40.258362
-1.405000	3.029614	-4.103828	101.268469	-0.102175	-0.208796	-0.045926	83.755037	1.782293	-0.142906	15.118159	1.728575	-23.184510	-36.130592	39.459145	7.507661	50.625550	33.631667	25.977882	4.737929	48.749493	30.174550	16.250168	-4.484360	62.012569	39.841755	9.434789	-8.844685	60.784525	40.255420
-1.395000	3.029614	-4.103828	101.268469	-0.102169	-0.208761	-0.045927	83.777311	1.787881	-0.118312	15.097252	1.702470	-23.200542	-36.132697	39.452119	7.525541	50.633550	33.637438	25.964033	4.748334	48.755442	30.184402	16.249341	-4.481721	62.010837	39.841946	9.494883	-8.878799	60.787491	40.248302
-1.385000	3.029614	-4.103828	101.268469	-0.102169	-0.208722	-0.045930	83.799050	1.796887	-0.090396	15.078067	1.699527	-23.218581	-36.139261	39.450333	7.543625	50.633500	33.638985	25.948534	4.754071	48.758293	30.194195	16.240114	-4.480673	62.010693	39.846282	9.536993	-8.905461	60.784472	40.241380
-1.375000	3.029614	-4.103828	101.268469	-0.102174	-0.208691	-0.045932	83.810278	1.802447	-0.065023	15.064275	1.722741	-23.235960	-36.149529	39.452327	7.557630	50.622545	33.635465	25.934812	4.755244	48.755875	30.203255	16.220897	-4.480054	62.012428	39.856139	9.561053	-8.928712	60.780460	40.238338
-1.365000	3.029614	-4.103828	101.268469	-0.102181	-0.208675	-0.045930	83.805294	1.799948	-0.046771	15.059123	1.764826	-23.249808	-36.161672	39.455142	7.564919	50.601743	33.627946	25.926168	4.753056	48.749509	30.212143	16.193839	-4.478463	62.016965	39.871750	9.573666	-8.953529	60.779608	40.240753
-1.355000	3.029614	-4.103828	101.268469	-0.102187	-0.208676	-0.045926	83.786067	1.789307	-0.037998	15.064825	1.810856	-23.257610	-36.173368	39.456486	7.565445	50.575634	33.618696	25.925276	4.749092	48.743090	30.221853	16.165170	-4.475310	62.025951	39.891932	9.582538	-8.981352	60.784113	40.247930
-1.345000	3.029614	-4.103828	101.268469	-0.102187	-0.208690	-0.045920	83.761055	1.774502	-0.039053	15.081810	1.844291	-23.257874	-36.182681	39.456136	7.561492	50.550107	33.610007	25.933887	4.744693	48.740688	30.232824	16.142827	-4.471174	62.040620	39.914257	9.592111	-9.008704	60.794675	40.257980
